<?xml version="1.0" encoding="UTF-8" standalone="no"?><!DOCTYPE svg PUBLIC "-//W3C//DTD SVG 1.1//EN" "http://www.w3.org/Graphics/SVG/1.1/DTD/svg11.dtd"><svg width="512px" height="512px" version="1.1" xmlns="http://www.w3.org/2000/svg" xmlns:xlink="http://www.w3.org/1999/xlink" xml:space="preserve" xmlns:serif="http://www.serif.com/" style="fill-rule:evenodd;clip-rule:evenodd;stroke-linejoin:round;stroke-miterlimit:2;"><path d="M512,80L512,432C512,476 476,512 432,512L80,512C36,512 0,476 0,432L0,80C0,36 36,0 80,0L432,0C476,0 512,36 512,80Z" style="fill:rgb(251,251,250);"/><g transform="matrix(0.853793,0,0,0.84375,63.36123,30.511412)"><rect x="-58" y="313" width="570" height="18" style="fill:rgb(0,3,255);"/></g><g transform="matrix(0.460783,0,0,0.460783,14.372885,136.625522)"><g transform="matrix(0.99,0,0,1,0.517447,0)"><g transform="matrix(288.951892,0,0,288.951892,1000.644635,325.446809)"></g><text x="52px" y="325px" style="font-family:'Arial-BoldItalicMT', 'Arial', sans-serif;font-weight:700;font-style:italic;font-size:289px;">s<tspan x="186px 416px 550px 620px 706px 840px " y="325px 325px 325px 325px 325px 325px ">mkfree</tspan></text></g></g></svg>