<?xml version="1.0" encoding="UTF-8" standalone="no"?><!DOCTYPE svg PUBLIC "-//W3C//DTD SVG 1.1//EN" "http://www.w3.org/Graphics/SVG/1.1/DTD/svg11.dtd"><svg width="100%" height="100%" viewBox="0 0 512 512" version="1.1" xmlns="http://www.w3.org/2000/svg" xmlns:xlink="http://www.w3.org/1999/xlink" xml:space="preserve" xmlns:serif="http://www.serif.com/" style="fill-rule:evenodd;clip-rule:evenodd;stroke-linejoin:round;stroke-miterlimit:2;"><path d="M512,80l0,352c0,44.153 -35.847,80 -80,80l-352,0c-44.153,0 -80,-35.847 -80,-80l0,-352c0,-44.153 35.847,-80 80,-80l352,0c44.153,0 80,35.847 80,80Z"/><g transform="matrix(0.99,0,0,1,0.287958,0)"><g transform="matrix(128.801546,0,0,128.801546,468.462386,453.219619)"></g><text x="45.486px" y="453.22px" style="font-family:'Arial-BoldItalicMT', 'Arial', sans-serif;font-weight:700;font-style:italic;font-size:128.802px;fill:#fff;">s<tspan x="105.27px 207.945px 267.729px 298.771px 337.046px 396.829px " y="453.22px 453.22px 453.22px 453.22px 453.22px 453.22px ">mkfree</tspan></text></g><g transform="matrix(4.156704,0,0,4.156704,125.561448,311.545053)"><g transform="matrix(0.99,0,0,1,0,0)"><text x="0px" y="0px" style="font-family:'ArialMT', 'Arial', sans-serif;font-size:128.802px;fill:#fff;">s</text></g><rect x="0" y="-33.332" width="63.757" height="6.415" style="fill:#fff;"/></g></svg>